# xmcd
#
# Track frame offsets:
#	150
#	12609
#	27443
#	40997
#	61260
#	72870
#	86056
#	101297
#	121349
#	136839
#	150483
#	163806
#	179505
#	193113
#	206353
#
# Disc length: 2954 seconds
#
# Revision: 1
# Processed by: cddbd v1.5.2PL0 Copyright (c) Steve Scherf et al.
# Submitted via: audiograbber 1.83.01
#
DISCID=cb0b880f
DTITLE=karaokanta - Exitos Gruperos Inmortales 5
DYEAR=1900
DGENRE=Grupero
TTITLE0=Selena -Amor Prohibido
TTITLE1=Los Mier-Hablemos 
TTITLE2=Mojado-Piensa en mi
TTITLE3=La Firma-La Llamada 
TTITLE4=Pegasso-Reflexiona
TTITLE5=Los Temerarios- Ven Porque Te necesito
TTITLE6=Sonido Master-Falsa Traicion
TTITLE7=Liberacion-Enamorado de un Fantasma
TTITLE8=Guardianes de Amor-El Perro El Gato y Yo
TTITLE9=AbraCadabra-Humedad
TTITLE10=Los Vickos-Que sera
TTITLE11=Los Yonics-Petalo y Espinas
TTITLE12=Mojado-Piensa en mi_tonoBajo
TTITLE13=Los Temerarios- Ven Porque Te necesito_tonoBajo
TTITLE14=Guardianes de Amor-El Perro El Gato y Yo_TonoBajo
EXTD=Disco de Karaoke  karaokanta inmortales gruperas
EXTT0=
EXTT1=
EXTT2=
EXTT3=
EXTT4=
EXTT5=
EXTT6=
EXTT7=
EXTT8=
EXTT9=
EXTT10=
EXTT11=
EXTT12=
EXTT13=
EXTT14=
PLAYORDER=
